<?xml version="1.0" standalone="no"?>
<!DOCTYPE svg PUBLIC "-//W3C//DTD SVG 20010904//EN"
 "http://www.w3.org/TR/2001/REC-SVG-20010904/DTD/svg10.dtd">
<svg version="1.0" xmlns="http://www.w3.org/2000/svg"
 width="3000.000000pt" height="3000.000000pt" viewBox="0 0 3000.000000 3000.000000"
 preserveAspectRatio="xMidYMid meet">

<g transform="translate(0.000000,3000.000000) scale(0.100000,-0.100000)"
fill="#000000" stroke="none">
<path d="M2020 18920 c-52 -3 -115 -11 -140 -18 -25 -7 -93 -19 -152 -27 -78
-10 -116 -20 -137 -36 -19 -14 -52 -24 -94 -28 -36 -4 -71 -12 -79 -19 -8 -6
-45 -16 -81 -21 -40 -6 -98 -24 -142 -45 -42 -20 -79 -36 -84 -36 -17 0 -110
-53 -171 -97 -36 -25 -103 -85 -150 -132 -140 -140 -205 -232 -216 -301 -4
-26 -17 -51 -33 -66 l-26 -24 0 -329 c0 -328 0 -329 23 -361 13 -17 27 -54 32
-83 11 -61 53 -179 80 -223 11 -17 28 -57 38 -90 16 -50 33 -79 100 -169 4 -5
15 -22 24 -36 9 -14 23 -32 30 -40 7 -8 23 -35 35 -61 12 -26 38 -65 58 -86
19 -22 35 -44 35 -49 0 -6 9 -18 20 -28 11 -10 20 -24 20 -31 0 -7 8 -19 18
-26 32 -23 252 -265 252 -277 0 -6 8 -15 18 -18 15 -6 182 -167 182 -177 0 -5
71 -76 76 -76 2 0 63 -57 134 -127 118 -117 244 -233 252 -233 2 0 37 -32 78
-71 101 -94 311 -255 387 -297 35 -18 76 -45 92 -60 48 -45 58 -51 106 -67 25
-9 57 -27 73 -41 55 -50 156 -124 168 -124 7 0 14 -4 16 -8 5 -13 110 -79 138
-87 84 -24 237 -107 315 -171 11 -9 36 -23 55 -31 91 -38 150 -67 150 -74 0
-5 33 -18 73 -30 39 -12 88 -32 108 -45 20 -12 63 -32 95 -43 124 -42 181 -67
203 -88 25 -23 74 -43 189 -76 114 -32 121 -78 15 -111 -91 -27 -164 -58 -208
-86 -52 -33 -74 -47 -109 -68 -17 -9 -39 -26 -51 -37 -28 -26 -57 -40 -130
-61 -33 -10 -67 -23 -75 -29 -8 -7 -22 -15 -30 -19 -8 -3 -28 -15 -45 -26 -16
-11 -41 -25 -55 -30 -14 -6 -37 -23 -52 -38 -15 -15 -35 -34 -45 -43 -10 -9
-27 -27 -39 -40 -42 -48 -164 -159 -174 -159 -5 0 -10 -7 -10 -15 0 -8 -8 -22
-18 -32 -61 -59 -131 -194 -142 -272 -20 -136 -8 -351 20 -384 6 -6 23 -33 38
-59 28 -48 102 -139 136 -167 11 -9 31 -27 46 -41 34 -33 87 -70 99 -70 5 0
11 -6 14 -14 9 -23 97 -78 141 -88 22 -5 50 -17 61 -27 34 -30 147 -87 210
-105 33 -9 94 -28 135 -42 42 -13 92 -24 112 -24 20 0 43 -6 50 -14 27 -26 77
-46 118 -46 23 0 60 -8 83 -19 23 -10 56 -21 72 -25 59 -11 388 -36 486 -36
105 0 233 -21 284 -47 27 -14 67 -44 118 -88 43 -38 119 -75 211 -104 54 -18
117 -43 140 -56 122 -71 325 -100 691 -100 376 0 592 30 810 114 55 21 134 46
175 56 41 10 95 24 119 31 25 8 52 14 60 14 14 0 187 84 276 133 17 10 62 31
100 47 39 17 79 36 90 42 11 7 36 20 56 29 19 10 41 25 49 33 7 9 18 16 24 16
7 0 21 8 32 18 10 10 42 33 69 52 28 19 59 43 70 53 11 10 37 28 58 40 20 11
37 24 37 28 0 5 21 20 48 35 55 32 131 82 187 124 22 16 51 37 65 47 28 19
141 104 180 134 14 11 82 65 151 122 228 184 257 207 264 207 3 0 42 26 86 58
44 31 91 64 105 73 13 9 66 48 117 87 160 123 221 168 244 180 12 7 27 18 35
24 7 7 35 29 62 48 27 19 59 45 72 57 13 12 74 48 136 81 125 65 166 91 313
200 97 73 149 101 209 116 16 4 40 16 53 26 14 10 45 22 71 26 61 9 97 30 127
75 16 25 35 40 56 44 57 13 58 9 41 -220 -14 -177 -15 -1018 -2 -1230 6 -88
17 -304 25 -480 8 -176 21 -367 29 -425 8 -58 20 -168 25 -245 6 -77 15 -156
20 -175 6 -19 17 -96 26 -170 9 -74 22 -164 30 -200 8 -36 19 -101 26 -144 6
-44 15 -91 20 -104 5 -13 14 -56 20 -95 6 -40 22 -110 35 -157 13 -46 24 -95
24 -108 0 -14 11 -59 24 -101 59 -187 76 -247 76 -260 0 -8 9 -33 20 -55 10
-23 23 -59 29 -81 11 -46 48 -140 131 -335 69 -159 158 -345 220 -455 16 -27
36 -63 44 -80 34 -65 67 -120 80 -134 8 -9 20 -27 26 -41 9 -22 42 -73 68
-105 4 -5 27 -39 51 -75 186 -276 489 -594 771 -810 18 -14 44 -34 59 -45 33
-26 73 -54 116 -80 17 -11 45 -29 61 -39 72 -47 104 -66 169 -101 39 -21 81
-44 95 -51 14 -8 30 -14 36 -14 6 0 22 -8 35 -19 13 -10 42 -24 64 -31 22 -7
45 -17 52 -22 18 -14 240 -98 324 -122 25 -7 71 -23 103 -35 31 -11 67 -21 80
-21 13 0 59 -11 102 -25 43 -14 91 -25 106 -25 14 0 64 -9 110 -20 46 -11 128
-24 183 -30 55 -6 150 -18 210 -28 90 -13 185 -16 520 -16 252 1 435 5 475 12
36 6 128 18 205 27 77 9 165 22 195 30 30 8 87 19 125 25 39 6 92 18 119 26
26 9 74 22 105 29 31 7 76 19 101 28 25 9 65 23 90 31 25 7 77 26 115 41 39
15 88 33 110 41 21 9 51 21 65 29 14 7 61 30 105 50 44 20 87 41 95 46 8 5 31
17 50 27 19 9 49 26 65 36 17 11 46 29 65 41 219 137 376 262 557 443 208 206
319 342 487 594 90 135 138 211 171 271 80 148 167 318 210 412 13 28 37 80
54 117 17 37 31 73 31 80 0 8 7 23 15 36 9 12 24 45 35 74 36 104 67 183 77
203 6 11 14 38 18 60 3 21 15 55 25 75 10 20 21 54 25 75 4 22 15 63 26 90 10
28 25 79 33 115 8 36 21 90 29 120 31 117 50 198 62 270 7 42 20 100 29 130 8
30 18 82 21 115 4 33 18 115 31 181 13 67 24 137 24 155 0 19 9 88 20 154 10
66 24 176 30 245 5 69 17 181 25 250 8 69 22 269 30 445 9 176 20 419 26 540
6 123 9 401 7 628 -4 365 -3 409 11 416 17 9 36 4 93 -22 21 -9 42 -17 48 -17
6 0 38 -22 71 -50 33 -27 68 -50 78 -50 17 0 136 -80 207 -139 16 -14 45 -37
64 -51 18 -14 46 -35 61 -47 15 -13 30 -23 33 -23 4 0 18 -11 33 -24 29 -27
193 -116 214 -116 8 0 35 -19 61 -43 57 -51 192 -165 282 -237 10 -8 51 -42
90 -75 39 -34 100 -83 136 -110 36 -27 67 -52 70 -55 3 -4 25 -17 50 -29 25
-13 68 -36 95 -52 28 -16 57 -32 66 -35 9 -3 22 -17 29 -30 8 -13 19 -24 26
-24 6 0 38 -25 70 -55 138 -130 208 -190 319 -268 44 -31 92 -66 107 -77 16
-12 58 -37 95 -56 38 -20 72 -40 78 -45 5 -5 19 -9 32 -9 12 0 30 -8 40 -19
10 -10 32 -26 48 -35 17 -9 44 -25 60 -36 17 -11 37 -23 45 -27 8 -4 23 -15
33 -24 10 -9 39 -23 64 -30 26 -7 69 -28 97 -46 27 -19 86 -48 130 -65 45 -17
90 -37 101 -44 11 -7 72 -27 135 -44 63 -17 119 -35 125 -39 17 -14 164 -58
265 -80 123 -27 403 -51 585 -51 193 0 472 26 560 52 205 60 350 118 415 166
14 11 45 32 69 48 24 15 48 38 53 49 9 20 102 63 183 84 22 6 99 11 170 11
180 0 450 18 543 35 167 31 222 44 254 61 18 9 53 23 78 30 25 7 92 29 149 48
58 20 111 36 119 36 21 0 247 111 312 152 30 20 87 65 125 102 39 36 73 65 77
66 14 0 148 172 154 198 4 15 20 61 36 102 28 70 29 82 26 190 -3 107 -6 120
-37 181 -18 37 -46 81 -62 99 -16 17 -29 36 -29 42 0 6 -22 33 -50 60 -27 27
-50 53 -50 58 0 6 -5 10 -11 10 -17 0 -150 139 -164 173 -32 76 -110 140 -217
181 -36 13 -74 29 -84 34 -25 13 -86 29 -147 38 -38 5 -59 16 -93 48 -98 91
-156 124 -268 155 -76 21 -91 43 -53 76 15 13 46 29 69 36 53 14 136 56 168
85 14 12 45 28 69 34 24 6 54 18 65 25 12 7 56 23 100 35 43 12 98 30 121 40
90 39 201 95 231 117 17 13 35 23 41 23 11 0 282 142 333 174 19 13 48 31 64
42 16 10 36 24 45 29 8 6 48 34 89 63 40 29 108 69 150 89 74 35 111 57 178
105 76 55 233 175 279 213 28 23 70 54 95 69 25 15 61 39 81 54 104 77 210
162 254 203 28 25 106 98 175 162 69 64 175 169 235 234 61 64 129 138 153
163 46 47 110 138 129 180 6 14 52 74 102 133 50 60 91 111 91 115 0 4 10 18
23 32 38 42 154 223 168 263 7 20 16 37 20 37 4 0 10 14 14 31 4 17 33 81 66
143 45 87 64 136 84 226 15 63 38 151 51 194 46 152 28 358 -49 581 -6 17 -21
44 -34 61 -13 17 -23 35 -23 41 0 15 -101 144 -130 168 -14 10 -41 36 -60 56
-45 48 -172 159 -181 159 -4 0 -30 16 -59 35 -28 19 -70 40 -93 46 -23 6 -65
24 -94 40 -32 17 -75 31 -110 35 -32 4 -77 15 -100 25 -23 11 -63 19 -89 19
-36 0 -58 7 -88 28 -39 27 -40 27 -250 33 -187 4 -217 8 -264 27 -67 28 -97
28 -174 -2 -60 -24 -75 -25 -348 -29 -284 -4 -285 -4 -340 -30 -30 -15 -66
-27 -80 -27 -14 0 -36 -7 -49 -16 -16 -12 -58 -19 -135 -24 -89 -7 -126 -14
-188 -39 -42 -17 -87 -31 -101 -31 -13 0 -53 -9 -87 -20 -34 -11 -68 -20 -75
-20 -7 0 -29 -11 -49 -25 -27 -18 -50 -25 -85 -25 -27 0 -68 -9 -92 -20 -24
-11 -62 -20 -84 -20 -51 0 -101 -14 -120 -34 -8 -8 -41 -20 -72 -27 -71 -15
-120 -39 -152 -73 -19 -20 -34 -26 -66 -26 -22 0 -66 -9 -98 -20 -31 -11 -71
-20 -89 -20 -42 -1 -109 -16 -117 -27 -8 -12 -58 -30 -105 -38 -38 -6 -75 -27
-126 -71 -14 -12 -45 -24 -70 -28 -69 -11 -187 -52 -211 -75 -12 -11 -43 -23
-68 -27 -56 -7 -140 -45 -163 -73 -12 -14 -30 -21 -55 -21 -21 0 -56 -9 -78
-19 -22 -10 -53 -21 -68 -25 -16 -4 -46 -18 -68 -32 -22 -13 -54 -27 -72 -31
-41 -7 -127 -49 -141 -69 -6 -8 -37 -18 -69 -24 -45 -7 -71 -19 -117 -55 -43
-32 -70 -45 -93 -45 -32 0 -94 -35 -135 -77 -15 -16 -34 -23 -59 -23 -21 -1
-56 -8 -78 -16 -22 -8 -61 -21 -86 -29 -25 -8 -54 -24 -64 -35 -10 -11 -24
-20 -32 -20 -7 0 -40 -18 -73 -41 -33 -23 -80 -47 -103 -54 -23 -7 -58 -20
-77 -28 -19 -8 -54 -23 -77 -33 -24 -9 -43 -21 -43 -25 0 -9 -20 -16 -70 -24
-44 -7 -108 -40 -139 -71 -15 -15 -36 -24 -55 -24 -17 -1 -49 -9 -71 -20 -22
-11 -46 -19 -54 -20 -8 0 -42 -15 -75 -34 -34 -19 -92 -46 -128 -60 -37 -13
-80 -34 -95 -45 -15 -10 -57 -29 -93 -42 -36 -12 -76 -32 -90 -45 -14 -12 -45
-29 -70 -37 -70 -24 -102 -39 -140 -68 -19 -15 -63 -35 -98 -44 -34 -10 -84
-33 -110 -51 -27 -20 -59 -34 -76 -34 -29 0 -133 -61 -149 -87 -4 -7 -22 -13
-40 -13 -47 0 -221 -73 -329 -137 -21 -13 -44 -23 -52 -23 -8 0 -19 -7 -23
-15 -5 -8 -31 -21 -58 -29 -81 -22 -148 -50 -182 -74 -17 -12 -38 -22 -47 -22
-9 0 -42 -9 -73 -19 -32 -11 -77 -25 -100 -31 -23 -6 -49 -17 -57 -25 -8 -8
-38 -21 -68 -29 -78 -21 -107 -33 -147 -65 -20 -16 -51 -32 -70 -36 -35 -8
-126 -50 -151 -71 -9 -7 -42 -20 -75 -29 -33 -8 -75 -22 -94 -31 -49 -23 -180
-14 -216 14 -22 17 -36 20 -78 15 -62 -7 -78 -19 -86 -70 -6 -34 -13 -41 -81
-80 -41 -24 -84 -43 -95 -43 -44 0 -45 0 -99 310 -8 41 -23 113 -35 160 -20
78 -29 113 -76 285 -9 33 -21 78 -27 100 -5 22 -19 63 -30 90 -11 28 -26 73
-33 100 -16 58 -58 179 -74 209 -10 21 -40 94 -68 171 -8 22 -23 54 -32 70
-10 17 -22 44 -25 60 -4 17 -14 37 -22 46 -7 8 -20 31 -27 50 -7 19 -28 63
-47 98 -19 35 -43 78 -52 96 -16 30 -24 34 -95 49 -43 10 -91 21 -107 27 -16
5 -50 9 -75 9 -25 1 -86 10 -136 20 -214 47 -868 47 -1080 1 -49 -11 -108 -20
-130 -21 -22 0 -56 -5 -75 -10 -19 -6 -78 -20 -130 -31 -52 -11 -119 -28 -148
-39 -29 -11 -72 -20 -96 -20 -28 0 -52 -7 -68 -19 -27 -21 -152 -81 -170 -81
-10 0 -127 -53 -158 -71 -8 -5 -26 -13 -40 -19 -14 -5 -36 -16 -50 -24 -14 -9
-42 -23 -63 -32 -21 -9 -42 -24 -47 -34 -11 -20 13 -44 103 -104 104 -70 348
-324 422 -441 10 -16 22 -34 27 -40 18 -21 59 -88 98 -158 23 -40 45 -79 50
-87 31 -54 120 -265 120 -285 0 -8 7 -26 14 -38 8 -12 22 -48 30 -79 8 -31 19
-66 25 -77 6 -11 17 -50 25 -88 8 -37 21 -84 29 -103 8 -19 18 -60 21 -91 4
-31 14 -78 22 -105 9 -27 22 -89 29 -139 8 -49 20 -121 29 -160 8 -38 18 -104
21 -145 4 -41 13 -112 21 -157 8 -46 23 -190 34 -320 11 -131 25 -294 32 -363
16 -173 17 -1800 0 -1955 -7 -60 -21 -213 -32 -340 -11 -126 -26 -268 -34
-315 -8 -47 -20 -131 -26 -187 -6 -57 -15 -115 -20 -130 -6 -16 -16 -75 -24
-133 -8 -58 -21 -123 -29 -145 -8 -22 -18 -65 -22 -95 -3 -30 -15 -77 -25
-105 -9 -27 -21 -70 -25 -95 -3 -25 -15 -67 -25 -95 -19 -51 -50 -146 -74
-225 -64 -209 -256 -573 -394 -745 -107 -133 -282 -297 -385 -361 -26 -16 -63
-39 -81 -50 -19 -12 -45 -25 -57 -29 -13 -5 -35 -15 -48 -23 -28 -19 -107 -49
-176 -67 -178 -46 -202 -49 -394 -53 -168 -3 -207 -1 -285 17 -50 11 -107 23
-126 26 -55 9 -245 83 -300 116 -8 5 -32 18 -52 29 -21 11 -57 34 -80 50 -24
17 -54 38 -68 47 -49 33 -136 109 -218 193 -83 84 -248 293 -279 354 -8 17
-21 38 -28 46 -7 8 -24 35 -37 60 -13 25 -29 54 -35 65 -10 19 -57 120 -88
190 -7 17 -21 54 -30 82 -9 29 -20 55 -25 58 -4 3 -11 24 -15 48 -4 23 -18 69
-31 101 -13 33 -24 69 -24 81 0 13 -11 56 -24 96 -13 41 -27 97 -30 124 -4 28
-11 61 -17 75 -12 33 -56 286 -74 430 -8 63 -21 160 -30 215 -8 55 -20 170
-25 255 -5 85 -17 238 -27 340 -26 268 -26 1617 1 1940 9 118 21 294 26 390 5
96 14 198 19 225 5 28 17 122 26 210 8 88 22 194 30 235 9 41 24 127 35 190
29 170 57 299 74 349 9 24 16 51 16 60 0 19 43 162 75 246 12 33 26 76 30 95
4 19 11 40 16 46 5 6 16 30 24 54 18 52 41 103 104 229 51 104 76 146 188 311
9 14 42 54 73 90 47 55 73 81 154 155 6 6 33 26 59 45 26 19 64 47 84 63 20
15 41 27 47 27 6 1 26 14 45 30 44 37 37 46 -78 102 -47 23 -92 48 -99 55 -7
7 -21 13 -30 13 -9 0 -35 11 -57 25 -22 13 -47 25 -55 25 -9 0 -34 9 -55 20
-22 11 -60 27 -85 35 -25 7 -81 28 -125 45 -70 28 -122 43 -315 88 -25 6 -76
16 -115 21 -38 6 -104 17 -145 25 -158 30 -781 28 -945 -3 -27 -5 -90 -14
-140 -20 -49 -7 -115 -16 -145 -22 -30 -6 -97 -19 -148 -29 -51 -9 -94 -19
-95 -21 -1 -2 -12 -19 -25 -37 -13 -18 -31 -51 -42 -75 -10 -23 -26 -53 -34
-67 -19 -33 -62 -128 -71 -160 -4 -14 -13 -34 -20 -45 -6 -11 -18 -38 -25 -60
-7 -22 -21 -56 -31 -75 -11 -19 -19 -42 -19 -50 0 -8 -11 -38 -24 -65 -12 -28
-26 -68 -30 -90 -4 -22 -11 -44 -16 -50 -12 -14 -100 -312 -130 -440 -11 -44
-26 -100 -35 -124 -8 -24 -15 -55 -15 -70 0 -15 -9 -60 -21 -101 -11 -41 -27
-113 -35 -160 -23 -145 -50 -260 -62 -272 -9 -9 -20 -9 -45 0 -18 7 -56 12
-83 12 -91 1 -319 65 -336 95 -4 7 -22 18 -40 26 -18 7 -58 30 -88 50 -30 20
-73 45 -95 57 -37 18 -43 19 -75 5 -37 -15 -46 -15 -199 11 -80 13 -99 20
-126 46 -17 16 -35 30 -40 30 -6 1 -28 9 -50 20 -22 11 -47 19 -56 20 -8 0
-33 13 -55 29 -21 15 -70 38 -109 50 -38 13 -84 31 -102 41 -17 10 -60 26 -95
35 -35 9 -71 21 -80 26 -10 5 -25 9 -34 9 -9 0 -42 13 -73 29 -93 48 -184 81
-224 81 -24 0 -40 5 -43 15 -8 21 -103 71 -148 78 -22 3 -62 22 -90 40 -29 19
-78 42 -111 52 -33 9 -74 30 -93 46 -18 16 -38 29 -45 29 -7 0 -24 6 -39 14
-14 8 -43 19 -65 26 -21 7 -45 19 -54 26 -18 16 -155 61 -214 71 -21 3 -58 20
-80 38 -43 32 -70 45 -142 64 -24 7 -43 18 -43 25 0 7 -10 18 -22 24 -58 28
-118 52 -133 52 -9 0 -35 13 -58 29 -23 17 -72 39 -109 51 -37 12 -78 30 -91
40 -30 24 -147 69 -205 79 -23 4 -53 18 -65 29 -13 12 -27 22 -31 22 -4 0 -19
9 -34 20 -15 11 -49 23 -77 26 -35 5 -59 15 -80 35 -34 32 -109 68 -142 69
-12 0 -34 11 -50 24 -46 39 -120 76 -151 76 -17 0 -37 9 -48 21 -23 26 -107
66 -154 73 -19 3 -51 19 -70 36 -19 16 -47 32 -63 36 -42 9 -118 43 -152 69
-16 12 -48 28 -70 35 -22 7 -77 30 -121 51 -45 22 -86 39 -91 39 -23 0 -132
40 -178 65 -112 62 -158 82 -285 126 -30 11 -63 24 -73 30 -10 5 -42 13 -70
16 -35 4 -67 17 -100 39 -27 18 -65 36 -85 40 -20 4 -74 24 -119 45 -45 22
-89 39 -98 39 -9 0 -29 7 -44 15 -16 8 -51 19 -77 25 -27 6 -60 19 -74 28 -14
9 -61 27 -105 40 -44 13 -91 30 -105 37 -49 27 -76 37 -130 46 -30 6 -80 19
-110 29 -30 10 -71 21 -91 25 -20 3 -46 14 -58 24 -12 11 -45 25 -74 31 -29 7
-64 19 -79 26 -15 8 -43 14 -63 14 -20 0 -58 11 -85 25 -27 14 -67 25 -88 25
-21 0 -65 7 -97 16 -33 8 -84 19 -114 24 -29 5 -72 18 -95 29 -59 28 -70 30
-191 40 -65 5 -122 16 -140 25 -16 9 -38 16 -47 16 -10 0 -41 9 -70 21 -30 12
-106 26 -182 35 -71 8 -154 21 -185 30 -31 8 -132 19 -226 24 -183 10 -201 10
-345 0z m471 -230 c80 -5 181 -17 225 -25 43 -8 118 -20 165 -25 47 -5 106
-17 130 -25 24 -9 84 -22 134 -30 164 -27 318 -74 406 -126 71 -41 133 -82
144 -94 6 -6 35 -28 65 -50 168 -121 481 -388 708 -603 123 -117 351 -365 375
-408 14 -25 0 -57 -39 -88 l-36 -29 -97 21 c-53 12 -145 23 -206 26 -60 3
-145 14 -188 25 -125 31 -508 45 -1047 38 -466 -7 -632 -16 -733 -42 -31 -8
-101 -17 -155 -21 -53 -3 -142 -17 -197 -30 -55 -13 -117 -24 -137 -24 -45 0
-88 -15 -88 -31 0 -15 232 -6 275 11 72 28 779 63 1150 57 504 -9 735 -25
1155 -83 292 -39 384 -90 609 -333 170 -184 401 -409 575 -561 60 -52 117
-102 126 -110 8 -8 54 -44 100 -80 47 -35 114 -88 150 -117 36 -30 71 -58 78
-64 14 -12 16 -45 3 -54 -18 -11 -706 -16 -780 -5 -39 5 -127 15 -194 21 -67
5 -167 19 -222 29 -55 10 -137 21 -182 24 -46 3 -106 12 -135 21 -29 8 -114
21 -188 29 -74 8 -169 20 -210 25 -464 64 -786 84 -748 45 4 -3 37 -10 75 -16
37 -6 93 -17 123 -25 30 -7 102 -20 160 -27 58 -8 118 -19 135 -26 16 -6 74
-18 129 -26 54 -8 106 -19 115 -23 9 -5 63 -16 120 -25 58 -10 107 -19 111
-21 3 -2 46 -11 95 -20 353 -63 427 -81 447 -105 20 -25 9 -60 -18 -60 -8 0
-34 -8 -57 -18 -23 -10 -76 -31 -117 -47 -243 -91 -447 -182 -471 -211 -6 -8
-17 -14 -24 -14 -7 0 -29 -13 -50 -30 -21 -16 -43 -30 -50 -30 -7 0 -23 -9
-36 -20 l-24 -19 31 -1 c18 0 58 12 90 26 33 15 84 37 114 50 30 14 72 33 92
44 20 11 43 20 50 20 7 0 31 9 52 21 43 23 373 135 439 149 60 12 164 40 217
57 25 8 72 19 105 24 33 5 87 18 120 29 33 11 101 25 150 31 50 6 115 15 145
19 78 12 422 11 505 0 39 -6 129 -17 200 -25 72 -7 159 -20 195 -29 36 -8 106
-18 155 -21 50 -4 117 -13 150 -21 33 -7 110 -18 170 -24 61 -6 155 -17 210
-25 55 -8 215 -28 355 -45 140 -17 314 -37 385 -46 72 -8 146 -19 165 -24 19
-5 78 -11 130 -15 52 -3 140 -15 195 -25 55 -10 143 -21 195 -25 52 -4 124
-13 160 -21 36 -8 135 -22 220 -30 85 -8 171 -19 190 -23 19 -5 80 -12 135
-16 55 -4 118 -11 140 -15 22 -5 150 -21 285 -35 135 -14 315 -37 400 -51 85
-14 166 -27 180 -29 14 -2 72 -9 130 -15 58 -6 141 -16 185 -21 53 -7 97 -7
132 0 60 12 83 7 83 -19 0 -29 -25 -42 -72 -36 -24 3 -306 8 -627 11 -630 7
-1223 -7 -1351 -30 -41 -7 -118 -17 -170 -20 -52 -4 -117 -11 -144 -16 -26 -5
-119 -16 -205 -24 -86 -8 -167 -18 -181 -20 -14 -3 -79 -12 -145 -20 -207 -25
-548 -80 -620 -100 -27 -7 -82 -18 -122 -24 -39 -6 -84 -16 -100 -22 -15 -7
-59 -18 -98 -24 -38 -7 -99 -20 -135 -29 -76 -18 -162 -39 -280 -66 -119 -27
-307 -78 -328 -88 -9 -5 -38 -14 -64 -21 -27 -6 -63 -20 -80 -31 -18 -11 -41
-20 -51 -20 -26 0 -77 -28 -77 -43 0 -26 103 -6 370 73 104 31 161 46 230 61
25 6 72 17 105 26 33 9 92 21 130 29 197 36 454 86 485 94 19 5 64 12 100 15
36 4 99 15 140 25 41 10 119 23 174 29 54 6 106 16 115 20 9 5 69 14 134 20
64 6 149 18 189 25 40 8 116 17 168 21 52 3 118 11 145 16 69 13 489 47 730
59 539 27 1357 34 1552 14 60 -6 63 -7 68 -38 4 -17 1 -71 -5 -121 -7 -49 -15
-118 -19 -152 -4 -34 -9 -65 -13 -68 -14 -14 -155 -45 -253 -55 -61 -6 -142
-18 -182 -26 -40 -8 -139 -19 -220 -24 -81 -5 -193 -16 -248 -24 -55 -9 -162
-20 -237 -26 -75 -6 -143 -12 -150 -15 -7 -2 -58 -9 -113 -14 -55 -6 -239 -26
-410 -45 -170 -19 -355 -39 -410 -45 -55 -6 -158 -16 -230 -22 -71 -6 -184
-17 -250 -26 -129 -17 -231 -26 -450 -43 -77 -5 -176 -15 -220 -20 -44 -5
-210 -16 -370 -25 -159 -8 -360 -19 -445 -25 -85 -6 -375 -14 -645 -18 -531
-9 -525 -9 -525 45 0 23 -23 32 -35 13 -38 -62 -309 -59 -625 7 -41 8 -102 20
-135 25 -33 6 -89 19 -125 30 -36 12 -90 26 -120 33 -86 19 -313 89 -440 135
-181 65 -192 70 -221 91 -15 10 -33 19 -39 19 -7 0 -29 9 -49 19 -20 11 -67
34 -106 52 -84 38 -302 146 -330 162 -11 7 -83 48 -160 91 -159 90 -330 191
-348 206 -17 14 -69 48 -161 103 -43 26 -128 85 -190 131 -61 45 -142 104
-181 131 -77 53 -85 59 -230 177 -229 187 -288 240 -455 408 -201 200 -230
232 -420 456 -66 78 -225 302 -298 419 -37 61 -163 323 -185 385 -39 114 -55
168 -79 280 -6 25 -11 99 -11 165 0 129 14 189 68 291 14 26 25 53 25 59 0 31
178 235 250 287 73 53 177 108 275 145 193 73 246 89 435 127 155 32 444 38
791 16z m25508 6 c196 -15 344 -41 436 -78 28 -11 72 -26 99 -33 27 -8 54 -19
59 -24 6 -6 17 -11 25 -11 26 0 233 -109 295 -156 127 -96 267 -259 267 -313
0 -10 11 -32 24 -48 35 -41 46 -150 34 -343 -8 -126 -13 -164 -34 -211 -13
-32 -24 -67 -24 -78 0 -37 -104 -277 -187 -431 -18 -35 -65 -106 -178 -270
-53 -78 -187 -246 -274 -345 -123 -138 -522 -522 -646 -621 -33 -26 -89 -73
-125 -104 -36 -31 -126 -102 -200 -158 -74 -55 -161 -120 -192 -144 -31 -24
-117 -82 -190 -131 -73 -48 -142 -93 -153 -100 -97 -66 -149 -96 -315 -185
-36 -19 -76 -42 -90 -51 -70 -45 -303 -161 -435 -216 -107 -45 -129 -55 -193
-87 -30 -16 -62 -28 -71 -28 -9 0 -27 -7 -39 -16 -39 -27 -433 -152 -557 -176
-27 -5 -74 -19 -102 -30 -29 -11 -84 -24 -123 -29 -38 -4 -91 -15 -117 -24
-47 -14 -193 -35 -404 -57 -86 -9 -117 -8 -171 4 -62 14 -67 14 -93 -5 -27
-20 -38 -20 -524 -13 -273 3 -566 11 -651 16 -85 5 -258 14 -385 20 -288 13
-522 28 -600 40 -33 5 -150 14 -260 20 -110 5 -238 17 -285 25 -47 8 -156 19
-243 25 -87 5 -184 14 -215 19 -31 6 -118 17 -192 26 -74 8 -187 22 -250 29
-63 8 -198 25 -300 36 -102 12 -187 23 -190 25 -3 2 -65 8 -139 15 -74 6 -164
17 -202 25 -37 8 -126 19 -199 25 -72 6 -159 17 -193 25 -34 8 -81 16 -105 18
-24 2 -49 10 -57 18 -8 9 -17 62 -24 144 -6 72 -16 158 -23 193 -19 103 -42
97 390 96 501 -2 930 -18 1286 -49 164 -14 303 -28 307 -31 5 -3 74 -9 154
-15 79 -5 156 -14 170 -19 15 -6 84 -17 155 -25 71 -8 141 -20 156 -25 14 -6
77 -17 138 -25 61 -8 127 -20 146 -26 19 -5 76 -16 125 -23 50 -8 185 -33 300
-56 116 -23 244 -49 285 -56 41 -8 95 -21 119 -29 25 -8 58 -15 75 -15 17 -1
49 -8 71 -16 22 -9 63 -20 90 -25 28 -6 84 -21 125 -34 41 -13 120 -36 175
-50 55 -15 129 -36 165 -46 88 -24 150 -33 150 -21 0 15 -22 29 -60 37 -19 4
-55 18 -80 31 -25 13 -54 24 -65 24 -11 0 -38 10 -60 21 -22 12 -69 30 -105
41 -270 79 -377 107 -577 148 -51 10 -100 23 -110 28 -10 5 -44 13 -77 17 -32
4 -77 13 -99 21 -22 8 -72 19 -111 25 -39 5 -87 16 -106 23 -19 8 -62 17 -95
21 -33 3 -91 13 -130 22 -79 16 -224 38 -395 58 -184 22 -297 36 -415 51 -60
8 -164 19 -230 25 -66 5 -176 16 -245 25 -214 26 -458 34 -945 33 l-469 -1
-18 22 c-52 64 -27 70 577 146 116 14 255 30 310 35 55 5 121 13 147 19 26 5
117 17 203 25 85 9 167 20 181 25 14 6 80 15 147 21 67 5 160 17 207 25 47 8
153 22 235 30 83 8 177 19 210 24 33 5 123 17 200 25 77 8 196 22 265 30 69 9
179 22 245 30 183 21 359 44 470 61 55 9 161 22 235 29 74 8 169 20 210 29 41
8 116 18 165 22 50 3 128 12 174 20 112 19 433 19 537 0 44 -8 108 -17 144
-21 36 -4 97 -15 135 -25 39 -10 90 -22 115 -25 25 -4 72 -15 105 -25 33 -10
98 -28 145 -40 166 -42 369 -112 490 -167 30 -14 84 -39 120 -55 190 -87 262
-118 277 -118 7 0 31 -9 53 -20 46 -23 50 -24 50 -7 0 14 -50 47 -195 129 -95
54 -316 157 -390 183 -44 15 -89 33 -100 40 -11 6 -38 18 -60 25 -22 7 -53 18
-70 25 -16 7 -44 18 -62 25 -17 6 -34 18 -37 27 -13 34 12 50 136 81 68 18
130 32 138 32 15 0 271 53 440 90 47 11 110 22 141 25 31 3 78 13 105 21 27 8
97 21 157 29 59 8 116 19 126 25 10 5 61 14 112 20 116 13 149 19 149 30 0 15
-31 20 -118 20 -92 0 -402 -34 -462 -50 -19 -6 -61 -10 -94 -10 -32 0 -84 -6
-115 -14 -31 -8 -96 -17 -146 -21 -49 -4 -135 -18 -190 -31 -55 -13 -120 -24
-145 -24 -25 0 -74 -7 -109 -15 -36 -9 -124 -22 -195 -31 -72 -8 -160 -20
-196 -26 -104 -18 -840 -12 -871 8 -18 11 -8 49 19 71 15 13 101 81 192 152
91 71 186 150 213 174 26 24 69 62 95 83 71 59 149 134 456 438 155 153 306
294 336 314 30 19 82 43 116 52 98 28 474 76 712 90 86 5 239 14 338 20 228
14 452 12 809 -6 435 -22 546 -31 605 -48 65 -19 231 -18 237 1 3 7 -13 14
-44 18 -26 3 -100 17 -163 30 -63 13 -153 26 -200 30 -47 3 -134 15 -195 25
-70 12 -205 23 -370 30 -143 5 -312 12 -375 15 -138 7 -746 -20 -920 -40 -167
-20 -260 -33 -350 -51 -112 -21 -131 -19 -173 20 -57 52 -52 81 27 158 35 35
90 95 123 133 74 87 370 378 478 471 44 37 82 71 85 74 35 39 396 313 499 378
107 66 243 119 371 142 36 7 80 18 99 26 19 8 59 17 90 20 31 3 101 15 156 26
217 43 627 57 954 34z m-1925 -272 c16 -6 21 -41 8 -59 -4 -6 -34 -30 -67 -55
-87 -65 -279 -224 -355 -295 -213 -197 -285 -276 -566 -623 -59 -73 -116 -82
-374 -62 -455 37 -756 45 -906 26 -60 -8 -165 -18 -234 -21 -103 -6 -129 -4
-145 8 -16 12 -17 17 -6 31 7 8 23 18 34 21 19 5 164 73 232 108 19 10 45 23
110 54 49 24 296 133 360 160 33 13 81 35 108 49 26 13 54 24 63 24 8 0 32 11
52 25 20 14 41 25 47 25 5 0 24 7 40 16 41 21 161 69 210 84 22 7 51 19 65 26
14 7 50 22 80 33 102 35 145 52 175 66 66 32 431 164 510 184 58 15 165 50
200 66 17 8 50 19 75 25 25 7 54 17 65 25 11 7 36 16 55 20 18 4 52 16 74 26
45 19 66 22 90 13z m-22070 -60 c33 -13 67 -24 75 -24 9 -1 34 -8 56 -16 22
-9 67 -24 100 -34 114 -34 370 -119 420 -139 28 -11 82 -32 120 -46 39 -14 84
-32 100 -40 27 -13 105 -43 250 -96 216 -80 332 -127 500 -204 17 -8 53 -23
80 -33 149 -58 299 -123 460 -202 99 -48 214 -104 255 -123 88 -40 102 -55
105 -103 3 -45 8 -49 74 -63 66 -14 100 -34 211 -126 141 -117 270 -218 365
-286 50 -35 117 -85 151 -111 49 -37 199 -139 403 -273 56 -37 179 -112 191
-117 8 -4 74 -43 145 -87 72 -44 166 -100 210 -124 418 -230 511 -279 720
-377 72 -33 138 -65 148 -70 9 -6 25 -14 35 -20 46 -25 215 -100 239 -106 16
-4 42 -17 59 -30 17 -12 47 -26 67 -29 20 -4 44 -13 54 -21 17 -13 17 -15 -2
-29 -21 -17 -73 -14 -185 10 -36 8 -99 18 -140 24 -41 5 -142 21 -225 34 -82
14 -202 31 -265 37 -63 6 -131 15 -150 20 -19 5 -82 14 -140 20 -58 6 -134 18
-170 26 -36 9 -115 19 -175 24 -61 5 -138 15 -172 24 -34 9 -119 21 -190 26
-70 6 -150 15 -178 20 -27 5 -124 17 -215 25 -91 8 -230 22 -310 30 -185 18
-353 33 -455 40 -161 12 -259 47 -380 135 -22 16 -69 50 -105 75 -310 214
-653 503 -887 746 -168 174 -201 256 -148 359 26 50 119 118 173 126 26 3 67
15 91 25 25 11 88 24 140 29 53 6 130 15 171 21 100 16 473 16 525 1 91 -27
300 -24 273 3 -3 4 -68 11 -143 16 -76 5 -174 16 -218 25 -69 14 -124 16 -366
10 -158 -3 -315 -10 -351 -16 -36 -5 -131 -16 -212 -25 -81 -8 -158 -17 -171
-20 -36 -10 -101 12 -134 43 -15 15 -64 70 -108 122 -169 202 -619 632 -835
798 -97 75 -110 88 -110 115 0 18 5 19 58 12 31 -4 84 -18 116 -31z m20261
-1054 c28 -5 104 -14 169 -20 77 -7 135 -18 164 -30 25 -11 52 -20 61 -20 29
0 119 -50 144 -80 33 -39 45 -151 22 -206 -22 -53 -106 -153 -237 -279 -151
-147 -401 -365 -488 -425 -19 -13 -70 -52 -113 -87 -65 -53 -148 -112 -321
-229 -17 -12 -37 -29 -45 -38 -7 -9 -18 -16 -23 -16 -6 0 -23 -9 -39 -21 -53
-37 -123 -49 -549 -89 -58 -6 -141 -15 -185 -20 -44 -5 -152 -16 -240 -25 -88
-8 -182 -20 -210 -25 -27 -5 -109 -14 -180 -20 -72 -5 -160 -16 -195 -24 -36
-9 -101 -18 -145 -21 -44 -4 -152 -17 -240 -30 -145 -21 -334 -43 -441 -51
-22 -2 -67 -10 -100 -19 -32 -8 -73 -15 -90 -15 -17 0 -67 -6 -110 -14 -44 -8
-131 -22 -194 -31 -63 -9 -140 -23 -171 -31 -71 -18 -103 -18 -119 1 -24 29
14 54 175 116 57 21 110 46 285 133 41 21 122 61 180 89 139 67 679 365 706
388 11 11 24 19 28 19 4 0 38 20 76 44 37 24 94 59 126 77 57 31 135 82 444
291 167 113 428 306 509 376 31 27 64 53 73 58 9 5 41 32 70 60 162 153 225
178 489 194 90 6 173 13 184 17 64 20 433 22 530 3z m-17307 -155 c26 -14 52
-25 59 -25 13 0 166 -60 199 -78 10 -6 48 -24 84 -40 36 -17 99 -46 140 -65
41 -19 129 -56 195 -82 66 -26 179 -75 250 -110 168 -81 195 -93 345 -155 132
-55 265 -115 290 -131 8 -5 26 -14 40 -19 14 -6 48 -21 75 -34 128 -60 164
-76 171 -76 4 0 37 -13 73 -29 36 -16 95 -41 131 -55 75 -31 135 -58 203 -92
26 -13 52 -24 58 -24 6 0 37 -11 68 -24 64 -27 118 -47 280 -106 63 -23 127
-48 142 -56 16 -8 36 -14 46 -14 10 0 36 -10 58 -21 22 -12 62 -29 90 -39 27
-10 145 -50 260 -91 116 -40 244 -85 285 -100 41 -15 98 -35 125 -44 28 -10
58 -22 68 -27 10 -5 59 -22 108 -38 164 -54 238 -89 245 -117 8 -30 -3 -141
-19 -204 -20 -78 -47 -94 -105 -65 -15 7 -110 32 -212 56 -102 23 -205 48
-230 56 -25 7 -63 16 -85 20 -22 3 -74 16 -115 29 -41 13 -113 34 -160 48
-313 93 -504 161 -657 233 -51 24 -95 44 -99 44 -3 0 -20 6 -37 14 -18 8 -99
43 -182 77 -82 35 -167 73 -187 86 -21 13 -44 23 -52 23 -8 0 -17 4 -21 9 -3
6 -106 59 -228 119 -122 61 -239 122 -260 136 -21 14 -40 26 -43 26 -3 0 -18
9 -33 19 -14 10 -60 37 -101 59 -117 61 -163 88 -263 152 -50 32 -146 92 -212
132 -66 40 -138 87 -160 103 -22 17 -92 65 -155 108 -263 175 -345 235 -436
316 -28 25 -66 58 -85 73 -28 23 -32 29 -19 37 19 14 14 15 68 -14z m16017 5
c11 -17 -22 -64 -77 -110 -51 -44 -216 -169 -288 -219 -19 -13 -55 -38 -79
-55 -24 -17 -53 -38 -66 -46 -12 -8 -65 -45 -116 -81 -52 -37 -125 -86 -164
-109 -38 -23 -106 -66 -150 -95 -93 -61 -211 -131 -345 -205 -52 -29 -106 -59
-120 -67 -14 -8 -47 -28 -75 -44 -27 -16 -133 -71 -235 -123 -162 -82 -239
-122 -315 -163 -11 -6 -40 -20 -65 -31 -25 -11 -74 -33 -110 -50 -36 -16 -94
-41 -130 -56 -36 -15 -87 -38 -115 -51 -118 -55 -235 -101 -385 -152 -59 -19
-241 -72 -270 -78 -19 -3 -57 -15 -85 -25 -27 -10 -70 -21 -94 -24 -24 -4 -56
-13 -71 -21 -15 -8 -56 -21 -91 -28 -35 -8 -102 -24 -148 -36 -70 -19 -89 -20
-108 -10 -27 14 -29 22 -43 114 -13 91 -13 191 0 216 7 11 21 19 38 19 15 0
51 12 81 25 30 14 71 30 90 35 20 5 110 35 201 66 91 31 199 67 240 80 115 35
181 59 225 83 22 11 47 21 55 21 9 0 24 6 35 14 11 7 40 21 65 29 160 56 374
140 465 183 28 12 94 43 147 68 53 26 100 46 104 46 7 0 52 19 219 93 78 34
261 121 305 146 33 18 147 71 153 71 6 0 69 28 172 76 17 7 46 20 65 29 19 8
42 19 50 24 19 13 229 111 236 111 17 0 294 124 453 202 248 122 331 152 346
128z m-3571 -2006 c10 -4 16 -18 16 -35 0 -33 -21 -42 -91 -37 -42 3 -44 5
-44 33 0 26 4 31 35 36 51 9 67 10 84 3z m-8956 -790 c2 -17 -9 -27 -63 -52
-36 -18 -72 -32 -80 -32 -8 0 -38 -9 -67 -21 -29 -12 -73 -27 -98 -34 -160
-46 -289 -89 -329 -109 -25 -13 -66 -29 -89 -36 -24 -6 -58 -20 -75 -31 -18
-10 -38 -19 -45 -19 -7 0 -43 -14 -80 -31 -63 -30 -99 -46 -182 -81 -121 -52
-236 -108 -309 -150 -46 -26 -85 -48 -87 -48 -2 0 -27 -14 -56 -31 -29 -17
-86 -49 -127 -71 -41 -22 -86 -47 -100 -57 -14 -10 -59 -40 -100 -67 -221
-146 -336 -226 -416 -292 -50 -41 -97 -79 -105 -85 -9 -7 -45 -34 -80 -61 -81
-62 -170 -152 -170 -171 0 -8 -9 -15 -19 -15 -18 0 -66 -48 -57 -57 7 -7 66
27 66 37 0 6 12 16 28 22 15 7 53 33 84 58 31 25 78 61 104 80 26 19 52 40 58
46 21 20 211 159 311 227 295 200 412 273 544 338 80 40 155 77 166 82 240
121 529 243 665 283 14 4 41 15 60 25 19 11 40 19 47 19 6 0 38 11 70 24 61
25 175 63 353 116 219 66 262 80 288 94 15 7 43 16 62 20 19 3 58 16 87 28 28
11 58 18 67 15 17 -7 22 -37 7 -37 -5 0 -24 -12 -42 -27 -18 -16 -80 -56 -138
-90 -207 -121 -436 -268 -730 -470 -46 -32 -91 -62 -100 -68 -100 -63 -312
-215 -543 -390 -65 -49 -133 -101 -152 -115 -30 -23 -106 -82 -306 -237 -41
-32 -110 -83 -154 -113 -43 -30 -106 -78 -140 -106 -33 -27 -119 -90 -191
-138 -71 -49 -148 -103 -170 -120 -56 -45 -180 -122 -300 -187 -251 -136 -346
-182 -430 -209 -38 -12 -74 -26 -80 -30 -5 -4 -44 -18 -85 -30 -41 -12 -100
-31 -130 -42 -30 -11 -82 -27 -115 -35 -33 -8 -85 -21 -115 -30 -30 -9 -89
-19 -130 -24 -41 -4 -122 -16 -180 -25 -163 -26 -420 -24 -600 5 -80 13 -179
34 -220 47 -41 13 -82 24 -90 24 -8 0 -32 9 -53 20 -20 11 -42 20 -48 20 -7 0
-50 18 -96 41 -59 29 -102 58 -140 97 l-55 56 4 82 c2 68 7 87 28 116 33 45
252 251 310 291 25 16 72 56 105 87 33 31 116 96 185 144 69 48 136 96 150
107 87 66 355 239 369 239 5 0 22 11 38 23 114 95 884 487 956 487 9 0 18 4
22 9 3 5 28 17 57 27 28 9 65 25 82 34 17 10 49 23 71 30 22 7 49 19 60 26 11
8 26 14 34 14 9 0 45 11 81 24 61 23 186 62 345 108 39 11 90 27 115 35 25 8
63 19 85 25 22 6 67 19 100 30 33 11 85 24 115 29 30 6 74 16 96 24 51 17 283
60 482 90 56 8 122 19 145 24 23 5 74 12 112 16 39 4 108 15 155 25 47 10 119
22 160 25 41 4 107 15 145 25 39 10 102 21 140 25 39 3 102 12 140 20 118 24
187 33 250 32 53 -2 60 -5 63 -23z m9212 5 c63 -11 164 -26 225 -34 60 -8 130
-22 155 -30 25 -8 86 -19 135 -24 50 -5 133 -19 185 -30 111 -23 264 -47 370
-56 97 -9 434 -70 487 -89 23 -8 63 -18 90 -21 26 -4 80 -18 120 -31 39 -13
81 -24 93 -24 12 0 42 -9 68 -19 26 -11 61 -22 77 -25 17 -4 59 -15 95 -26 36
-10 112 -33 170 -50 58 -17 130 -40 160 -51 30 -11 73 -25 95 -30 21 -6 44
-14 50 -19 7 -6 32 -17 56 -25 24 -8 58 -22 74 -30 62 -29 148 -65 157 -65 5
0 39 -13 75 -30 35 -16 69 -30 74 -30 5 0 17 -4 27 -10 14 -8 169 -80 222
-104 8 -3 35 -18 60 -32 25 -15 92 -51 150 -81 149 -78 183 -98 274 -157 45
-28 102 -65 129 -82 243 -150 593 -403 706 -510 47 -44 111 -99 141 -121 30
-22 72 -60 92 -84 143 -169 168 -208 168 -260 0 -62 -22 -108 -75 -158 -50
-48 -159 -111 -190 -111 -9 0 -26 -6 -38 -14 -12 -8 -51 -22 -87 -31 -35 -9
-73 -21 -82 -26 -37 -20 -343 -49 -518 -49 -163 0 -406 19 -510 40 -137 28
-257 57 -268 64 -8 5 -39 14 -70 21 -32 7 -88 25 -127 40 -38 14 -101 38 -140
52 -38 13 -112 45 -163 69 -51 24 -97 44 -101 44 -4 0 -16 9 -25 19 -10 11
-28 22 -41 25 -35 9 -267 140 -375 212 -211 141 -298 202 -370 257 -41 32
-118 90 -170 129 -52 39 -131 101 -175 138 -44 36 -145 115 -225 175 -80 60
-147 112 -150 115 -18 20 -126 104 -180 141 -36 24 -103 74 -150 110 -47 37
-168 122 -269 190 -101 68 -223 150 -270 182 -47 32 -95 62 -106 68 -27 13
-49 27 -119 74 -94 64 -137 91 -204 130 -65 38 -101 86 -89 119 11 28 50 22
242 -33 150 -44 193 -57 285 -89 58 -19 130 -44 160 -54 30 -10 63 -23 73 -29
10 -5 44 -18 75 -29 284 -93 304 -102 687 -291 274 -135 311 -155 424 -231 38
-27 72 -48 75 -48 3 0 24 -13 48 -28 24 -16 70 -46 103 -68 33 -21 94 -64 135
-95 41 -31 137 -103 213 -160 76 -57 153 -114 170 -126 18 -13 39 -28 47 -35
50 -44 84 -67 91 -62 12 7 -181 199 -256 254 -33 24 -107 81 -165 127 -127
101 -115 93 -305 216 -22 15 -58 40 -80 56 -22 17 -50 35 -61 40 -12 5 -54 30
-93 55 -39 25 -74 46 -77 46 -3 0 -85 44 -182 98 -97 54 -193 104 -212 112
-32 12 -186 84 -346 161 -33 16 -66 29 -73 29 -6 0 -30 9 -53 21 -22 11 -59
27 -82 34 -61 20 -328 114 -351 124 -31 14 -145 51 -200 65 -28 7 -64 20 -80
28 -17 9 -46 19 -65 23 -45 9 -80 31 -80 50 0 22 99 19 240 -6z m-11630 -274
c6 -8 9 -23 5 -34 -6 -18 -41 -33 -205 -86 -176 -57 -349 -122 -480 -182 -52
-24 -68 -31 -107 -52 -10 -6 -43 -21 -73 -34 -52 -23 -128 -59 -245 -112 -44
-21 -176 -93 -273 -151 -222 -130 -321 -192 -423 -264 -220 -155 -274 -195
-319 -232 -25 -20 -101 -81 -170 -136 -114 -91 -440 -403 -440 -421 0 -6 -65
-73 -113 -117 -28 -25 -67 -45 -113 -58 -102 -29 -100 -29 -484 4 -69 5 -145
15 -170 20 -25 5 -97 19 -160 31 -125 23 -319 75 -335 90 -5 5 -16 9 -25 9 -8
0 -42 13 -75 30 -33 16 -65 30 -70 30 -19 0 -290 142 -335 175 -109 80 -205
209 -238 322 -27 88 -27 93 -1 179 74 244 246 423 579 602 36 19 72 40 80 47
16 12 156 81 225 110 94 39 349 125 371 125 8 0 36 8 62 18 172 68 248 78 382
49 41 -9 149 -21 240 -26 91 -6 235 -18 320 -27 130 -13 235 -15 645 -10 270
3 519 10 555 16 36 5 171 14 300 20 129 6 316 19 415 30 99 10 252 22 340 25
88 4 187 10 220 15 92 11 102 11 115 -5z m14150 -10 c124 -8 250 -19 280 -24
31 -5 171 -14 310 -20 140 -6 316 -16 390 -22 353 -27 476 -31 860 -25 223 3
432 10 465 15 33 6 131 15 218 21 88 6 207 20 265 31 141 25 203 24 296 -6 42
-14 84 -25 94 -25 9 0 30 -7 46 -15 16 -8 56 -22 89 -31 155 -40 389 -123 472
-166 99 -53 125 -67 158 -86 20 -12 52 -30 70 -41 165 -94 230 -143 357 -271
113 -113 167 -204 194 -325 17 -78 17 -82 -1 -155 -11 -42 -36 -99 -55 -130
-37 -58 -140 -168 -198 -212 -40 -30 -193 -112 -230 -123 -14 -4 -37 -16 -52
-26 -14 -11 -32 -19 -40 -19 -7 0 -31 -10 -53 -21 -78 -42 -289 -105 -460
-138 -60 -12 -126 -26 -146 -31 -20 -6 -79 -13 -130 -16 -52 -4 -116 -12 -144
-19 -65 -16 -284 -9 -385 12 -93 20 -140 50 -245 162 -279 294 -356 367 -555
526 -41 33 -77 62 -80 65 -53 56 -493 344 -660 432 -41 22 -86 48 -100 57 -14
10 -32 21 -40 24 -8 4 -33 18 -55 31 -68 41 -623 316 -639 316 -8 0 -17 4 -20
9 -3 4 -34 18 -68 31 -35 12 -68 26 -74 31 -5 4 -59 26 -120 48 -60 21 -122
46 -139 55 -16 9 -49 21 -72 26 -27 7 -44 17 -48 30 -6 20 0 40 13 40 4 0 108
-7 232 -15z"/>
<path d="M4095 15210 c-8 -13 5 -13 25 0 13 8 13 10 -2 10 -9 0 -20 -4 -23
-10z"/>
<path d="M3985 15153 c-41 -21 -65 -43 -65 -59 0 -21 54 3 84 36 39 44 34 51
-19 23z"/>
<path d="M5920 14410 c-12 -8 -9 -10 12 -10 15 0 30 5 33 10 8 13 -25 13 -45
0z"/>
<path d="M5801 14366 c-13 -7 -19 -16 -14 -19 12 -8 80 10 88 23 9 15 -46 11
-74 -4z"/>
<path d="M5686 14317 c-17 -13 -17 -14 -2 -20 18 -7 61 6 71 22 9 16 -47 14
-69 -2z"/>
<path d="M25907 15140 c26 -29 121 -90 139 -90 18 0 -73 81 -111 100 -56 27
-62 25 -28 -10z"/>
<path d="M23945 14410 c3 -5 18 -10 33 -9 24 0 25 1 7 9 -28 12 -47 12 -40 0z"/>
<path d="M24067 14373 c-4 -3 -2 -12 4 -20 15 -18 69 -17 69 1 0 19 -58 34
-73 19z"/>
</g>
</svg>
